<?xml version="1.0" standalone="no"?>
<!DOCTYPE svg PUBLIC "-//W3C//DTD SVG 20010904//EN"
 "http://www.w3.org/TR/2001/REC-SVG-20010904/DTD/svg10.dtd">
<svg version="1.0" xmlns="http://www.w3.org/2000/svg"
 width="1715.000000pt" height="143.000000pt" viewBox="0 0 1715.000000 143.000000"
 preserveAspectRatio="xMidYMid meet">
<metadata>
Created by potrace 1.15, written by Peter Selinger 2001-2017
</metadata>
<g transform="translate(0.000000,143.000000) scale(0.100000,-0.100000)"
fill="#000000" stroke="none">
<path d="M368 1264 c-45 -24 -53 -50 -58 -189 l-5 -130 -49 -6 c-80 -9 -127
-79 -95 -142 18 -35 51 -57 89 -57 19 0 40 -4 46 -8 7 -4 13 -50 16 -117 4
-124 16 -154 76 -195 34 -24 42 -25 239 -28 237 -4 297 5 350 51 55 48 63 78
63 229 0 120 -2 137 -23 170 -51 84 -95 98 -301 98 -113 0 -166 4 -174 12 -8
8 -12 49 -12 120 0 125 -13 169 -59 192 -37 20 -68 20 -103 0z m443 -534 c15
-8 19 -21 19 -58 0 -27 -5 -53 -12 -60 -17 -17 -259 -17 -276 0 -19 19 -15
105 6 117 23 14 238 14 263 1z"/>
<path d="M2595 1271 c-11 -5 -29 -19 -40 -31 -17 -19 -20 -39 -23 -149 -2 -69
-8 -132 -14 -138 -8 -10 -57 -13 -182 -13 -192 0 -229 -10 -279 -69 -40 -48
-50 -94 -46 -227 5 -140 21 -176 97 -222 l47 -27 235 0 c219 0 237 1 270 21
19 11 45 35 57 54 20 29 23 45 23 141 0 120 5 129 69 129 46 0 93 46 94 92 2
64 -44 108 -112 108 -46 0 -51 14 -51 148 l0 124 -34 34 c-35 35 -68 42 -111
25z m-84 -541 c15 -8 19 -21 19 -58 0 -27 -5 -53 -12 -60 -17 -17 -259 -17
-276 0 -19 19 -15 105 6 117 23 14 238 14 263 1z"/>
<path d="M3988 1265 c-45 -25 -53 -51 -58 -190 l-5 -130 -49 -6 c-80 -9 -127
-79 -95 -142 18 -34 51 -57 86 -57 61 0 63 -4 63 -104 0 -50 5 -107 10 -126
12 -45 65 -97 111 -110 53 -15 254 -12 294 4 70 30 83 120 24 170 -27 23 -39
26 -113 26 -50 0 -87 5 -94 12 -7 7 -12 33 -12 60 0 59 14 68 109 68 82 0 117
13 137 51 23 45 17 78 -20 115 -33 33 -36 34 -119 34 -55 0 -88 4 -95 13 -6 6
-12 69 -14 139 -3 122 -4 129 -29 154 -32 32 -93 41 -131 19z"/>
<path d="M9995 1247 c-24 -24 -35 -44 -35 -63 0 -42 34 -92 67 -99 15 -4 38
-10 50 -15 22 -9 22 -11 25 -312 3 -334 3 -334 67 -364 47 -23 104 -5 132 39
18 31 19 49 17 409 l-3 378 -28 27 c-26 27 -32 28 -142 31 l-115 4 -35 -35z"/>
<path d="M12458 1265 c-45 -25 -53 -51 -58 -190 l-5 -130 -49 -6 c-80 -9 -127
-79 -95 -142 18 -34 51 -57 86 -57 61 0 63 -4 63 -104 0 -50 5 -107 10 -126
12 -45 65 -97 111 -110 53 -15 254 -12 294 4 70 30 83 120 24 170 -27 23 -39
26 -113 26 -50 0 -87 5 -94 12 -7 7 -12 33 -12 60 0 59 14 68 109 68 82 0 117
13 137 51 23 45 17 78 -20 115 -33 33 -36 34 -119 34 -55 0 -88 4 -95 13 -6 6
-12 69 -14 139 -3 122 -4 129 -29 154 -32 32 -93 41 -131 19z"/>
<path d="M15735 1271 c-11 -5 -29 -19 -40 -31 -17 -19 -20 -39 -23 -149 -2
-69 -8 -132 -14 -138 -8 -10 -57 -13 -182 -13 -192 0 -229 -10 -279 -69 -40
-48 -50 -94 -46 -227 5 -140 21 -176 97 -222 l47 -27 235 0 c219 0 237 1 270
21 19 11 45 35 57 54 20 29 23 45 23 141 0 120 5 129 69 129 46 0 93 46 94 92
2 64 -44 108 -112 108 -46 0 -51 14 -51 148 l0 124 -34 34 c-35 35 -68 42
-111 25z m-84 -541 c15 -8 19 -21 19 -58 0 -27 -5 -53 -12 -60 -17 -17 -259
-17 -276 0 -19 19 -15 105 6 117 23 14 238 14 263 1z"/>
<path d="M16318 1264 c-44 -23 -52 -50 -58 -189 l-5 -130 -49 -6 c-38 -4 -55
-12 -77 -37 -32 -36 -36 -69 -14 -112 18 -34 43 -50 80 -50 60 0 65 -11 65
-129 0 -134 6 -164 37 -195 34 -34 74 -41 117 -21 54 26 66 63 66 204 0 109 2
121 19 131 11 5 71 10 135 10 91 0 118 -3 130 -16 13 -12 16 -41 16 -145 0
-130 0 -131 29 -159 16 -16 40 -32 55 -36 33 -8 81 11 106 44 18 22 20 41 20
209 0 202 -4 219 -60 266 -17 15 -46 29 -65 33 -19 3 -35 9 -35 13 0 4 8 46
19 93 15 72 16 90 6 115 -28 67 -111 85 -165 36 -26 -24 -35 -46 -58 -138
l-27 -110 -48 -3 c-73 -5 -77 3 -77 130 0 125 -13 169 -59 192 -37 20 -68 20
-103 0z"/>
<path d="M1240 918 c-72 -49 -75 -60 -75 -253 0 -190 3 -200 69 -249 26 -20
43 -21 305 -24 269 -3 278 -2 304 18 38 30 38 90 1 119 -25 20 -39 21 -246 21
-204 0 -219 1 -216 18 3 15 23 17 205 22 184 5 204 7 229 26 56 41 69 69 69
149 0 82 -14 111 -75 153 -32 21 -40 22 -285 22 -245 0 -253 -1 -285 -22z"/>
<path d="M3070 918 c-61 -42 -75 -71 -75 -153 0 -82 14 -111 75 -152 31 -22
42 -23 226 -23 166 0 194 -2 194 -15 0 -13 -31 -15 -221 -15 l-221 0 -29 -29
c-33 -33 -35 -50 -14 -91 24 -47 61 -52 335 -48 226 3 248 5 280 24 57 33 80
77 80 151 0 77 -17 113 -67 148 -37 25 -41 25 -230 25 -165 0 -193 2 -193 15
0 13 31 15 219 15 218 0 218 0 245 25 35 32 36 86 1 120 l-24 25 -274 0 c-268
0 -275 -1 -307 -22z"/>
<path d="M4580 918 c-72 -49 -75 -60 -75 -253 0 -190 3 -200 69 -249 26 -20
43 -21 305 -24 269 -3 278 -2 304 18 38 30 38 90 1 119 -25 20 -39 21 -246 21
-204 0 -219 1 -216 18 3 15 23 17 205 22 184 5 204 7 229 26 56 41 69 69 69
149 0 82 -14 111 -75 153 -32 21 -40 22 -285 22 -245 0 -253 -1 -285 -22z"/>
<path d="M5465 924 c-87 -45 -115 -102 -115 -239 0 -55 5 -116 10 -135 11 -40
71 -104 113 -119 16 -6 102 -11 196 -11 176 0 212 -8 198 -44 -6 -14 -26 -16
-147 -16 -152 0 -195 -10 -224 -51 -26 -37 -21 -86 13 -120 l29 -29 219 0
c215 0 219 0 254 24 64 44 69 67 69 309 0 239 2 247 63 247 42 0 76 24 93 66
12 29 12 39 0 68 -28 67 -23 66 -401 66 -288 0 -345 -2 -370 -16z m386 -194
c22 -12 27 -78 7 -98 -15 -15 -241 -17 -269 -2 -26 14 -27 84 -1 99 23 14 238
14 263 1z"/>
<path d="M6375 915 c-40 -39 -32 -96 16 -120 22 -12 73 -15 239 -15 175 0 210
-2 210 -14 0 -12 -35 -15 -203 -18 l-204 -3 -35 -27 c-48 -37 -72 -100 -66
-173 5 -59 24 -94 72 -129 26 -20 40 -21 291 -21 251 0 265 1 291 21 66 49 69
59 69 249 0 193 -3 204 -75 253 -32 21 -39 22 -307 22 l-274 0 -24 -25z"/>
<path d="M7187 916 c-47 -43 -48 -106 -2 -152 15 -15 36 -24 55 -24 65 0 70
-9 70 -129 0 -134 6 -164 37 -195 33 -33 74 -41 115 -22 55 27 62 47 68 196
l5 135 28 9 c21 8 35 7 55 -5 27 -15 27 -16 32 -151 5 -148 11 -164 71 -188
37 -16 75 -6 110 30 29 28 29 29 29 154 0 113 2 128 20 146 23 23 58 26 82 8
13 -11 17 -38 20 -145 3 -130 3 -132 32 -162 38 -40 76 -47 123 -24 60 29 64
45 61 255 -3 207 -6 217 -78 266 -33 22 -33 22 -470 22 l-437 0 -26 -24z"/>
<path d="M8400 918 c-72 -49 -75 -60 -75 -253 0 -190 3 -200 69 -249 26 -20
43 -21 305 -24 269 -3 278 -2 304 18 38 30 38 90 1 119 -25 20 -39 21 -246 21
-204 0 -219 1 -216 18 3 15 23 17 205 22 184 5 204 7 229 26 56 41 69 69 69
149 0 82 -14 111 -75 153 -32 21 -40 22 -285 22 -245 0 -253 -1 -285 -22z"/>
<path d="M9178 917 c-69 -64 -32 -177 59 -177 21 0 43 -4 49 -8 8 -4 13 -55
16 -142 4 -150 10 -169 67 -196 47 -23 104 -5 131 39 17 27 20 51 20 159 0
116 2 128 19 138 11 5 86 10 171 10 l152 0 29 29 c41 42 41 101 -1 143 l-30
30 -202 -6 c-112 -3 -210 -5 -218 -5 -8 0 -65 2 -125 5 -107 5 -111 5 -137
-19z"/>
<path d="M10485 915 c-40 -39 -32 -96 16 -120 22 -12 73 -15 239 -15 175 0
210 -2 210 -14 0 -12 -35 -15 -203 -18 l-204 -3 -35 -27 c-48 -37 -72 -100
-66 -173 5 -59 24 -94 72 -129 26 -20 40 -21 291 -21 251 0 265 1 291 21 66
49 69 59 69 249 0 193 -3 204 -75 253 -32 21 -39 22 -307 22 l-274 0 -24 -25z"/>
<path d="M11297 916 c-30 -28 -42 -65 -33 -102 10 -39 53 -74 92 -74 67 0 64
11 64 -244 0 -261 6 -298 53 -326 38 -24 68 -25 107 -5 43 22 54 49 60 150 l5
90 180 6 c199 6 236 16 288 79 34 40 39 73 35 217 -3 114 -4 121 -32 157 -56
74 -67 76 -452 76 l-341 0 -26 -24z m624 -186 c14 -8 19 -21 19 -50 0 -29 -5
-42 -19 -50 -28 -15 -254 -13 -269 2 -19 19 -15 85 6 97 23 14 238 14 263 1z"/>
<path d="M13085 925 c-94 -50 -118 -109 -114 -277 5 -145 20 -180 97 -226 l47
-27 220 0 c208 0 222 1 262 22 87 47 106 98 101 274 -3 113 -5 129 -27 161
-13 19 -40 46 -59 59 -35 23 -41 24 -266 27 -195 2 -236 0 -261 -13z m395
-205 c13 -20 13 -77 0 -101 -10 -17 -22 -19 -140 -19 -104 0 -132 3 -144 16
-23 22 -20 80 5 105 19 19 30 20 145 17 97 -2 127 -6 134 -18z"/>
<path d="M13827 916 c-30 -28 -42 -65 -33 -102 10 -39 53 -74 92 -74 67 0 64
11 64 -244 0 -261 6 -298 53 -326 38 -24 68 -25 107 -5 43 22 54 49 60 150 l5
90 180 6 c199 6 236 16 288 79 34 40 39 73 35 217 -3 114 -4 121 -32 157 -56
74 -67 76 -452 76 l-341 0 -26 -24z m624 -186 c14 -8 19 -21 19 -50 0 -29 -5
-42 -19 -50 -28 -15 -254 -13 -269 2 -19 19 -15 85 6 97 23 14 238 14 263 1z"/>
<path d="M14862 630 c-37 -23 -52 -54 -52 -111 0 -99 64 -156 145 -128 93 32
103 198 15 244 -39 20 -69 19 -108 -5z"/>
</g>
</svg>
