<?xml version="1.0" standalone="no"?>
<!DOCTYPE svg PUBLIC "-//W3C//DTD SVG 20010904//EN"
 "http://www.w3.org/TR/2001/REC-SVG-20010904/DTD/svg10.dtd">
<svg version="1.0" xmlns="http://www.w3.org/2000/svg"
 width="2153.000000pt" height="116.000000pt" viewBox="0 0 2153.000000 116.000000"
 preserveAspectRatio="xMidYMid meet">
<metadata>
Created by potrace 1.15, written by Peter Selinger 2001-2017
</metadata>
<g transform="translate(0.000000,116.000000) scale(0.100000,-0.100000)"
fill="#000000" stroke="none">
<path d="M154 997 c-2 -7 -4 -49 -2 -93 l3 -79 390 -5 c292 -4 396 -8 413 -18
17 -10 22 -22 22 -52 0 -63 -5 -64 -350 -70 l-305 -5 -3 -92 -3 -92 310 -3
c287 -3 310 -4 330 -22 31 -28 28 -81 -5 -103 -24 -15 -64 -18 -330 -21 l-304
-4 0 -88 c0 -71 3 -89 16 -94 24 -9 437 -7 541 3 103 10 180 40 226 87 50 50
62 82 62 169 0 69 -4 86 -27 125 -25 44 -26 46 -9 70 66 92 53 229 -29 310
-83 83 -89 84 -543 88 -334 3 -398 1 -403 -11z"/>
<path d="M1344 997 c-3 -8 -4 -49 -2 -93 l3 -79 735 -5 c821 -6 761 0 833 -79
75 -83 77 -227 6 -315 -53 -63 -102 -79 -270 -84 l-149 -5 0 155 c0 109 -4
159 -13 172 -10 14 -26 16 -92 14 l-80 -3 -3 -257 -2 -258 26 -6 c48 -12 475
3 532 19 189 54 303 227 289 441 -11 179 -99 305 -254 368 l-58 23 -748 3
c-625 2 -748 0 -753 -11z"/>
<path d="M3544 1000 c-62 -13 -106 -34 -149 -71 -52 -46 -75 -99 -75 -179 0
-110 46 -181 148 -228 54 -25 67 -27 257 -32 170 -4 205 -8 228 -23 38 -25 38
-79 1 -104 -24 -15 -64 -18 -330 -21 l-304 -4 0 -88 c0 -71 3 -89 16 -94 24
-9 437 -7 543 4 124 12 206 50 250 116 71 108 44 272 -57 339 -75 49 -115 57
-328 64 -225 7 -234 10 -234 71 0 65 -2 64 344 70 l311 5 0 90 0 90 -290 1
c-159 1 -308 -2 -331 -6z"/>
<path d="M4304 997 c-3 -8 -4 -49 -2 -93 l3 -79 163 -3 162 -2 0 -329 c0 -291
2 -330 16 -335 31 -12 151 -6 163 8 8 9 10 130 9 427 l-3 414 -253 3 c-205 2
-253 0 -258 -11z"/>
<path d="M4964 997 c-3 -8 -4 -49 -2 -93 l3 -79 90 0 90 0 0 90 0 90 -88 3
c-67 2 -89 0 -93 -11z"/>
<path d="M5234 997 c-3 -8 -4 -49 -2 -93 l3 -79 420 0 420 0 0 90 0 90 -418 3
c-343 2 -418 0 -423 -11z"/>
<path d="M6513 1000 c-115 -24 -229 -117 -281 -227 -25 -54 -27 -68 -27 -188
0 -125 1 -132 32 -197 61 -130 181 -213 325 -226 40 -4 91 -5 113 -2 l40 5 0
90 0 90 -75 1 c-92 1 -150 24 -202 82 -42 47 -52 84 -46 182 3 57 9 77 33 112
40 57 119 98 190 98 57 0 137 -24 156 -46 6 -8 19 -14 27 -14 19 0 132 109
132 126 0 19 -78 72 -140 95 -62 24 -207 34 -277 19z"/>
<path d="M7374 997 c-3 -8 -4 -49 -2 -93 l3 -79 77 -3 78 -3 -163 -325 c-135
-270 -159 -326 -147 -334 23 -15 156 -12 172 3 7 8 28 46 47 85 l35 72 248 0
c215 0 248 2 248 15 0 9 -18 51 -40 95 l-40 80 -160 0 -160 0 31 61 31 62 19
-32 c19 -31 19 -31 103 -31 47 0 87 4 91 10 3 5 -42 104 -100 220 l-105 210
-130 0 c-100 0 -132 -3 -136 -13z"/>
<path d="M9264 997 c-3 -8 -4 -49 -2 -93 l3 -79 420 0 420 0 0 90 0 90 -418 3
c-343 2 -418 0 -423 -11z"/>
<path d="M10235 997 c-3 -7 -5 -49 -3 -93 l3 -79 305 -5 c344 -6 350 -7 350
-69 0 -67 11 -65 -429 -71 l-396 -5 0 -90 0 -90 305 -5 305 -5 102 -155 c57
-85 110 -161 120 -167 26 -20 162 -17 170 2 3 10 -34 75 -100 174 l-106 159
59 21 c168 62 217 275 90 401 -80 80 -99 83 -458 88 -262 3 -313 1 -317 -11z"/>
<path d="M11563 1000 c-115 -24 -229 -117 -281 -227 -25 -54 -27 -68 -27 -188
0 -125 1 -132 32 -197 40 -85 106 -151 191 -191 65 -31 71 -32 197 -32 118 1
135 3 185 26 61 29 120 74 120 93 0 6 -27 38 -60 71 l-60 60 -28 -18 c-53 -35
-96 -49 -156 -49 -77 -2 -138 25 -188 80 -42 47 -52 84 -46 182 3 57 9 77 33
112 40 57 119 98 190 98 57 0 137 -24 156 -46 6 -8 19 -14 27 -14 19 0 132
109 132 126 0 19 -78 72 -140 95 -62 24 -207 34 -277 19z"/>
<path d="M12383 1000 c-115 -24 -229 -117 -281 -227 -25 -54 -27 -68 -27 -188
0 -125 1 -132 32 -197 40 -86 106 -151 191 -191 56 -26 82 -32 161 -35 156 -7
243 21 336 109 90 85 132 202 122 343 -11 179 -101 308 -254 366 -65 25 -209
35 -280 20z m192 -191 c53 -15 129 -91 144 -144 48 -173 -51 -315 -221 -317
-79 -2 -140 24 -190 80 -42 47 -52 84 -46 182 3 57 9 77 33 112 57 82 171 117
280 87z"/>
<path d="M14285 997 c-3 -7 -5 -49 -3 -93 l3 -79 305 -5 c344 -6 350 -7 350
-69 0 -67 11 -65 -429 -71 l-396 -5 0 -90 0 -90 395 0 c447 0 459 2 543 76
101 89 105 252 7 349 -80 80 -99 83 -458 88 -262 3 -313 1 -317 -11z"/>
<path d="M15224 996 c-3 -7 -4 -132 -2 -277 l3 -264 32 -67 c40 -86 106 -151
191 -191 56 -26 82 -32 161 -35 102 -5 182 8 245 40 60 30 139 111 168 170 43
89 49 144 46 398 l-3 235 -90 0 -90 0 -5 -250 c-4 -218 -7 -255 -24 -288 -37
-75 -113 -118 -210 -119 -72 -1 -127 20 -175 65 -58 55 -61 72 -61 331 0 129
-3 241 -6 250 -8 22 -172 24 -180 2z"/>
<path d="M16244 997 c-3 -8 -4 -49 -2 -93 l3 -79 163 -3 162 -2 0 -329 c0
-291 2 -330 16 -335 31 -12 151 -6 163 8 8 9 10 130 9 427 l-3 414 -253 3
c-205 2 -253 0 -258 -11z"/>
<path d="M16904 997 c-3 -8 -4 -49 -2 -93 l3 -79 90 0 90 0 0 90 0 90 -88 3
c-67 2 -89 0 -93 -11z"/>
<path d="M17174 997 c-3 -8 -4 -49 -2 -93 l3 -79 420 0 420 0 0 90 0 90 -418
3 c-343 2 -418 0 -423 -11z"/>
<path d="M18145 997 c-3 -7 -5 -49 -3 -93 l3 -79 305 -5 c344 -6 350 -7 350
-69 0 -67 11 -65 -429 -71 l-396 -5 0 -90 0 -90 305 -5 305 -5 102 -155 c57
-85 110 -161 120 -167 26 -20 162 -17 170 2 3 10 -34 75 -100 174 l-106 159
59 21 c168 62 217 275 90 401 -80 80 -99 83 -458 88 -262 3 -313 1 -317 -11z"/>
<path d="M19354 997 c-2 -7 -4 -49 -2 -93 l3 -79 335 -5 c374 -6 365 -4 433
-79 75 -83 77 -227 6 -315 -53 -63 -102 -79 -270 -84 l-149 -5 0 155 c0 109
-4 159 -13 172 -10 14 -26 16 -92 14 l-80 -3 -3 -257 -2 -258 26 -6 c48 -12
475 3 532 19 189 54 303 227 289 441 -11 179 -99 305 -254 368 -56 22 -69 23
-406 26 -290 3 -348 1 -353 -11z"/>
<path d="M20537 1003 c-4 -3 -7 -194 -7 -424 l0 -419 25 -6 c27 -7 151 -1 158
6 104 124 651 819 655 832 4 18 -1 19 -84 16 l-89 -3 -235 -293 -235 -293 -5
293 c-3 161 -7 294 -8 296 -5 5 -169 1 -175 -5z"/>
<path d="M8060 581 c0 -373 2 -420 16 -425 25 -9 137 -7 154 4 12 7 16 46 20
206 l5 197 150 -199 c83 -109 155 -199 162 -199 6 0 48 48 92 107 l81 107 0
86 c0 61 -3 85 -12 85 -7 -1 -46 -46 -87 -101 -41 -55 -77 -97 -81 -92 -4 4
-114 151 -245 326 -131 174 -241 317 -246 317 -5 0 -9 -186 -9 -419z"/>
<path d="M9054 992 c-6 -4 -45 -53 -87 -109 l-77 -102 0 -309 c0 -351 -8 -322
91 -322 108 0 99 -39 99 430 0 225 -4 411 -8 414 -4 2 -13 2 -18 -2z"/>
<path d="M13080 581 c0 -373 2 -420 16 -425 25 -9 137 -7 154 4 12 7 16 46 20
206 l5 197 150 -199 c83 -109 155 -199 162 -199 6 0 48 48 92 107 l81 107 0
86 c0 61 -3 85 -12 85 -7 -1 -46 -46 -87 -101 -41 -55 -77 -97 -81 -92 -4 4
-114 151 -245 326 -131 174 -241 317 -246 317 -5 0 -9 -186 -9 -419z"/>
<path d="M14074 992 c-6 -4 -45 -53 -87 -109 l-77 -102 0 -309 c0 -351 -8
-322 91 -322 108 0 99 -39 99 430 0 225 -4 411 -8 414 -4 2 -13 2 -18 -2z"/>
<path d="M1347 673 c-4 -3 -7 -46 -7 -95 l0 -88 340 0 341 0 -3 93 -3 92 -331
3 c-182 1 -333 -1 -337 -5z"/>
<path d="M5237 673 c-4 -3 -7 -46 -7 -95 l0 -88 340 0 341 0 -3 93 -3 92 -331
3 c-182 1 -333 -1 -337 -5z"/>
<path d="M6700 661 c-11 -21 -14 -129 -4 -155 5 -13 22 -16 85 -16 l79 0 0
-158 c0 -110 4 -162 12 -170 14 -14 146 -16 166 -4 9 7 12 66 10 263 l-3 254
-167 3 c-157 2 -168 1 -178 -17z"/>
<path d="M9267 673 c-4 -3 -7 -46 -7 -95 l0 -88 340 0 341 0 -3 93 -3 92 -331
3 c-182 1 -333 -1 -337 -5z"/>
<path d="M17177 673 c-4 -3 -7 -46 -7 -95 l0 -88 340 0 341 0 -3 93 -3 92
-331 3 c-182 1 -333 -1 -337 -5z"/>
<path d="M21077 438 c-19 -24 -37 -49 -41 -56 -5 -7 19 -46 61 -100 106 -136
100 -132 188 -132 58 0 77 4 81 15 7 16 -223 314 -243 315 -6 0 -27 -19 -46
-42z"/>
<path d="M1340 251 c0 -72 3 -90 16 -95 20 -8 628 -8 648 0 13 5 16 23 16 95
l0 89 -340 0 -340 0 0 -89z"/>
<path d="M5230 251 c0 -72 3 -90 16 -95 20 -8 628 -8 648 0 13 5 16 23 16 95
l0 89 -340 0 -340 0 0 -89z"/>
<path d="M9260 251 c0 -72 3 -90 16 -95 20 -8 628 -8 648 0 13 5 16 23 16 95
l0 89 -340 0 -340 0 0 -89z"/>
<path d="M10230 251 c0 -103 -2 -101 95 -101 83 0 95 12 95 95 0 97 2 95 -101
95 l-89 0 0 -89z"/>
<path d="M14280 251 c0 -103 -2 -101 95 -101 83 0 95 12 95 95 0 97 2 95 -101
95 l-89 0 0 -89z"/>
<path d="M17170 251 c0 -72 3 -90 16 -95 20 -8 628 -8 648 0 13 5 16 23 16 95
l0 89 -340 0 -340 0 0 -89z"/>
<path d="M18140 251 c0 -103 -2 -101 95 -101 83 0 95 12 95 95 0 97 2 95 -101
95 l-89 0 0 -89z"/>
<path d="M19160 251 c0 -103 -2 -101 95 -101 83 0 95 12 95 95 0 97 2 95 -101
95 l-89 0 0 -89z"/>
</g>
</svg>
